<?xml version="1.0" encoding="UTF-8"?>
<svg viewBox="0 0 752 752" xmlns="http://www.w3.org/2000/svg">
 <path d="m553.59 198.41h-355.18c-7.8516 0-15.379 3.1172-20.93 8.668s-8.6719 13.078-8.6719 20.93v236.79c0 7.8516 3.1211 15.379 8.6719 20.93 5.5508 5.5508 13.078 8.6719 20.93 8.6719h126.09c-5.293 8.6602-13.059 15.531-22.297 19.73-9.0781 5.5234-17.758 10.656-19.734 19.734-0.47266 6.2109 2.0117 12.281 6.7109 16.375 1.9805 2.2656 4.8867 3.5 7.8906 3.3555h157.86c2.6055-0.035156 5.0859-1.1016 6.9102-2.9609 4.8867-4.1367 7.4609-10.391 6.9062-16.77-1.1836-9.4727-9.8672-14.602-19.734-19.734-9.2383-4.1992-17.008-11.07-22.297-19.73h126.88c7.8516 0 15.379-3.1211 20.93-8.6719 5.5508-5.5508 8.668-13.078 8.668-20.93v-236.79c0-7.8516-3.1172-15.379-8.668-20.93-5.5508-5.5508-13.078-8.668-20.93-8.668zm9.8672 236.79h-374.92v-207.19c0-5.4492 4.418-9.8672 9.8672-9.8672h355.18c2.6172 0 5.125 1.0391 6.9766 2.8906 1.8516 1.8516 2.8906 4.3594 2.8906 6.9766z"/>
</svg>
