<?xml version="1.0" encoding="UTF-8"?>
<svg viewBox="0 0 752 752" xmlns="http://www.w3.org/2000/svg">
 <path d="m463.81 168.81h-175.62c-10.371 0.30078-20.238 4.5508-27.574 11.891-7.3398 7.3359-11.594 17.203-11.891 27.574v333.48c0.29688 10.375 4.5508 20.238 11.891 27.578 7.3359 7.3359 17.203 11.59 27.574 11.887h175.62c10.371-0.29688 20.238-4.5508 27.574-11.887 7.3398-7.3398 11.59-17.203 11.891-27.578v-332.49c-0.046875-10.543-4.1914-20.66-11.555-28.207-7.3633-7.5469-17.371-11.938-27.91-12.246zm-107.54 19.734h39.465c5.4492 0 9.8672 4.418 9.8672 9.8672 0 5.4492-4.418 9.8633-9.8672 9.8633h-39.465c-5.4492 0-9.8672-4.4141-9.8672-9.8633 0-5.4492 4.418-9.8672 9.8672-9.8672zm19.734 374.92h-0.003906c-5.2305 0-10.25-2.0781-13.953-5.7812-3.6992-3.6992-5.7773-8.7188-5.7773-13.953 0-5.2305 2.0781-10.25 5.7773-13.953 3.7031-3.6992 8.7227-5.7773 13.953-5.7773 5.2344 0 10.254 2.0781 13.953 5.7773 3.7031 3.7031 5.7812 8.7227 5.7812 13.953 0 5.2344-2.0781 10.254-5.7812 13.953-3.6992 3.7031-8.7188 5.7812-13.953 5.7812zm88.797-59.199h-177.59l-0.003906-276.25h177.59z"/>
</svg>
