<svg xmlns="http://www.w3.org/2000/svg" viewBox="0 0 38 38">
  <path d="M29.5 24.797C30.454 23.077 31 21.1 31 19s-.546-4.077-1.5-5.797v-.216h-.132C27.288 9.413 23.425 7 19 7 12.383 7 7 12.383 7 19s5.383 12 12 12c4.425 0 8.288-2.413 10.368-5.987h.132v-.216zm-20.557-4.85h3.571c.072 1.087.267 2.149.581 3.172H9.781a10.05 10.05 0 0 1-.838-3.172zm16.543-1.894a13.993 13.993 0 0 0-.581-3.172h3.314c.442.986.733 2.052.838 3.172h-3.571zm-1.902 0h-3.637V14.88h2.957c.367 1.014.595 2.078.68 3.172zm-3.637-5.066v-2.702a12.57 12.57 0 0 1 2.08 2.702h-2.08zm-1.894-2.702v2.702h-2.08a12.583 12.583 0 0 1 2.08-2.702zm0 4.596v3.172h-3.637c.085-1.094.313-2.158.68-3.172h2.957zm-5.539 3.172h-3.57c.104-1.12.395-2.186.837-3.172h3.314a14.028 14.028 0 0 0-.581 3.172zm1.902 1.894h3.637v3.172h-2.957a12.063 12.063 0 0 1-.68-3.172zm3.637 5.066v2.702a12.581 12.581 0 0 1-2.08-2.701h2.08zm1.894 2.702v-2.701h2.08a12.612 12.612 0 0 1-2.08 2.701zm0-4.596v-3.172h3.637a12.063 12.063 0 0 1-.68 3.172h-2.957zm5.539-3.172h3.57a10.05 10.05 0 0 1-.837 3.172h-3.313a13.99 13.99 0 0 0 .58-3.172zm1.616-6.96h-2.939a14.31 14.31 0 0 0-2.583-3.746 10.116 10.116 0 0 1 5.522 3.746zM16.42 9.241a14.326 14.326 0 0 0-2.583 3.746h-2.939a10.116 10.116 0 0 1 5.522-3.746zm-5.522 15.772h2.939a14.353 14.353 0 0 0 2.583 3.746 10.113 10.113 0 0 1-5.522-3.746zm10.682 3.746a14.326 14.326 0 0 0 2.583-3.746h2.939a10.113 10.113 0 0 1-5.522 3.746z"/>
</svg>
