<svg xmlns="http://www.w3.org/2000/svg" viewBox="0 0 426 426">
  <g fill="white">
    <path d="M172.100229 237.036995c2.1914 3.7969 6.1719 5.918 10.262 5.918 2.0078 0 4.043-.50781 5.9102-1.5859l13-7.5039v15.012c0 6.5391 5.3008 11.84 11.84 11.84s11.84-5.3008 11.84-11.84v-15.012l13 7.5078c1.8672 1.0781 3.9023 1.5859 5.9102 1.5859 4.0898 0 8.0742-2.1211 10.262-5.918 3.2695-5.6602 1.332-12.906-4.332-16.172l-13-7.5117 13-7.5078c5.6641-3.2695 7.6016-10.512 4.332-16.172-3.2695-5.6602-10.508-7.6094-16.172-4.332l-13 7.5078v-15.012c0-6.5391-5.3008-11.84-11.84-11.84s-11.84 5.3008-11.84 11.84v15.012l-13-7.5078c-5.6641-3.2773-12.91-1.3242-16.172 4.332-3.2695 5.6602-1.332 12.906 4.332 16.172l13.004 7.5078-13 7.5078c-5.6641 3.2656-7.6055 10.512-4.3359 16.172z"/>
    <path d="M53.700229 237.036995c2.1914 3.7969 6.1719 5.918 10.262 5.918 2.0078 0 4.043-.50781 5.9102-1.5859l13-7.5039v15.012c0 6.5391 5.3008 11.84 11.84 11.84 6.5391 0 11.84-5.3008 11.84-11.84v-15.012l13 7.5078c1.8672 1.0781 3.9023 1.5859 5.9102 1.5859 4.0898 0 8.0742-2.1211 10.262-5.918 3.2695-5.6602 1.332-12.906-4.332-16.172l-13-7.5117 13-7.5078c5.6641-3.2695 7.6016-10.512 4.332-16.172-3.2695-5.6602-10.512-7.6094-16.172-4.332l-13 7.5078v-15.012c0-6.5391-5.3008-11.84-11.84-11.84-6.5391 0-11.84 5.3008-11.84 11.84v15.012l-13-7.5078c-5.668-3.2773-12.91-1.3242-16.172 4.332-3.2695 5.6602-1.332 12.906 4.332 16.172l13 7.5078-13 7.5078c-5.6641 3.2656-7.6055 10.512-4.332 16.172z"/>
    <path d="M290.490229 237.036995c2.1914 3.7969 6.1719 5.918 10.262 5.918 2.0078 0 4.043-.50781 5.9102-1.5859l13.004-7.5039v15.012c0 6.5391 5.3008 11.84 11.84 11.84 6.5391 0 11.84-5.3008 11.84-11.84v-15.012l13 7.5078c1.8672 1.0781 3.9023 1.5859 5.9102 1.5859 4.0898 0 8.0742-2.1211 10.262-5.918 3.2695-5.6602 1.332-12.906-4.332-16.172l-13.004-7.5117 13-7.5078c5.6641-3.2695 7.6016-10.512 4.332-16.172-3.2695-5.6602-10.512-7.6094-16.172-4.332l-13 7.5078v-15.012c0-6.5391-5.3008-11.84-11.84-11.84-6.5391 0-11.84 5.3008-11.84 11.84v15.012l-13-7.5078c-5.668-3.2773-12.91-1.3242-16.172 4.332-3.2695 5.6602-1.332 12.906 4.332 16.172l13.004 7.5078-13 7.5078c-5.6641 3.2656-7.6055 10.512-4.3359 16.172z"/>
    <path d="M213.110229.246995c-47.871 0-93.297 15.727-130.48 44.652v-33.059c0-6.5391-5.3008-11.84-11.84-11.84-6.5391 0-11.84 5.3008-11.84 11.84v59.199c0 .26953.058594.53125.074218.80078.027344.38672.046876.77344.10938 1.1523.019531.125.023437.24609.046874.36328.050782.27344.15625.52734.23047.78906.09375.34766.18359.69531.30859 1.0312.046875.12891.082031.26172.13281.38672.10937.26172.26172.49609.38672.75.15625.31641.3125.62891.49609.92969.070312.11719.125.24219.20312.35938.14844.22266.33203.40625.49219.62109.23047.30469.46484.60156.72266.88281.25.26953.52734.51562.80469.76172.29297.26172.58203.51172.90625.74219.125.089844.23047.19531.35938.28125.20703.14062.44141.23047.65234.35938.3125.17969.62109.35938.95312.51172.14844.066406.28125.15234.42969.21484.26953.11328.55469.17188.82812.26562.21875.070312.41016.17969.63281.24219l57.18 15.32c1.0273.27344 2.0547.40625 3.0703.40625 5.2266 0 10.012-3.4922 11.434-8.7812 1.6914-6.3164-2.0547-12.809-8.3711-14.504l-36.023-9.6523c33.441-26.773 74.641-41.348 118.1-41.348 104.45 0 189.43 84.98 189.43 189.43s-84.98 189.43-189.43 189.43-189.43-84.98-189.43-189.43c0-6.5391-5.3008-11.84-11.84-11.84-6.543 0-11.84 5.3008-11.84 11.84 0 117.51 95.602 213.11 213.11 213.11 117.51 0 213.11-95.602 213.11-213.11-.003907-117.51-95.605-213.11-213.12-213.11z"/>
  </g>
</svg>
